<svg id="レイヤー_1" data-name="レイヤー 1" xmlns="http://www.w3.org/2000/svg" width="100" height="100" viewBox="0 0 100 100">
  <defs>
    <style>
      .cls-1 {
        fill: #fff;
      }
    </style>
  </defs>
  <title>feedly</title>
  <path class="cls-1" d="M31.2,90.56,3.53,62.69C.16,59.33.16,52,3.53,48.85L43.17,9c3.18-3.18,10.29-3.18,13.47,0L96.47,48.85c3.37,3.37,3.37,10.66,0,13.84L68.8,90.56a10.12,10.12,0,0,1-6.92,2.8H37.75A9.56,9.56,0,0,1,31.2,90.56ZM56.45,79.71a1.7,1.7,0,0,0,0-2.24L51,72a1.72,1.72,0,0,0-2.25,0l-5.42,5.43a1.7,1.7,0,0,0,0,2.24l4.3,4.12h4.49l4.3-4.12Zm0-23a1.38,1.38,0,0,0,0-1.68l-5.8-5.8a1.38,1.38,0,0,0-1.68,0L32.14,66.06a2,2,0,0,0,0,2.43l3.93,3.93h4.49L56.45,56.71Zm0-22.82c.38-.37.56-1.49,0-1.87l-5.61-5.61a2,2,0,0,0-2.06,0L20.54,54.65c-.37.38-.56,1.5-.18,1.87l4.49,4.3h4.3l27.3-26.93Z"/>
</svg>
