<svg id="レイヤー_1" data-name="レイヤー 1" xmlns="http://www.w3.org/2000/svg" width="100" height="100" viewBox="0 0 100 100">
  <defs>
    <style>
      .cls-1 {
        fill: #fff;
      }
    </style>
  </defs>
  <title>hatena</title>
  <g>
    <path class="cls-1" d="M57.9,52.25c-2.55-2.82-6.08-4.42-10.59-4.76,4-1.09,6.95-2.69,8.8-4.84s2.74-5,2.74-8.6A15.21,15.21,0,0,0,57,26.46a13.62,13.62,0,0,0-5.38-5.21,23.14,23.14,0,0,0-7.33-2.41,109.17,109.17,0,0,0-15-.67H11.8V81.8h18a117.9,117.9,0,0,0,15.63-.73,25.36,25.36,0,0,0,8-2.49,14.57,14.57,0,0,0,6.13-6,18.26,18.26,0,0,0,2.16-9C61.71,58.86,60.45,55.08,57.9,52.25Zm-30-20h3.73c4.31,0,7.19.47,8.68,1.45s2.21,2.67,2.21,5-.81,3.92-2.38,4.87S35.66,45,31.38,45H27.93V32.26ZM42.72,68.75c-1.71,1-4.62,1.54-8.71,1.54H27.93V56.43h6.33c4.2,0,7.11.53,8.65,1.59s2.36,2.92,2.36,5.6-.84,4.12-2.58,5.16Z"/>
    <path class="cls-1" d="M80.13,65.7a8.07,8.07,0,1,0,8.07,8.06h0A8.06,8.06,0,0,0,80.13,65.7Z"/>
    <rect class="cls-1" x="73.13" y="18.17" width="14" height="42.43"/>
  </g>
</svg>
