<svg id="レイヤー_1" data-name="レイヤー 1" xmlns="http://www.w3.org/2000/svg" width="100" height="100" viewBox="0 0 100 100">
  <defs>
    <style>
      .cls-1 {
        fill: #fff;
        fill-rule: evenodd;
      }
    </style>
  </defs>
  <title>tw</title>
  <g id="Page-1">
    <g id="Dribbble-Light-Preview">
      <g id="icons">
        <path class="cls-1" d="M32.41,87.93c35.78,0,55.36-29.19,55.36-54.5,0-.83,0-1.66-.06-2.48A39.41,39.41,0,0,0,97.42,21a39.67,39.67,0,0,1-11.17,3,19.34,19.34,0,0,0,8.55-10.6A39,39,0,0,1,82.44,18.1a19.7,19.7,0,0,0-27.53-.83,19,19,0,0,0-5.63,18.31,55.59,55.59,0,0,1-40.1-20,19,19,0,0,0,6,25.57,19.56,19.56,0,0,1-8.83-2.39V39A19.24,19.24,0,0,0,22,57.76a19.63,19.63,0,0,1-8.79.32A19.45,19.45,0,0,0,31.38,71.39,39.49,39.49,0,0,1,7.22,79.61a42.33,42.33,0,0,1-4.64-.28,55.77,55.77,0,0,0,29.83,8.59"/>
      </g>
    </g>
  </g>
</svg>
