<svg id="レイヤー_1" data-name="レイヤー 1" xmlns="http://www.w3.org/2000/svg" width="100" height="100" viewBox="0 0 100 100">
  <title>evernote</title>
  <path d="M35.87,25.49a4.88,4.88,0,0,1-1,3.3,4.93,4.93,0,0,1-3.31,1H22.17a47.06,47.06,0,0,0-5.44.14,7.69,7.69,0,0,0-1.69.52c-.11,0-.15,0-.07-.08L36.46,8.5c.07-.08.12-.05.07.07A7.66,7.66,0,0,0,36,10.26a49.53,49.53,0,0,0-.15,5.45Zm20,66.09a11.25,11.25,0,0,1-4.33-5.07,11.1,11.1,0,0,1,6.2-14.42,11,11,0,0,1,4.2-.78,3.29,3.29,0,0,1,3.31,3.28v0a3.34,3.34,0,0,1-1.71,2.89,4.21,4.21,0,0,1-1.25.43,5.33,5.33,0,0,0-2.42.79,3.24,3.24,0,0,0-1.31,2.58,4.08,4.08,0,0,0,1.17,2.87,7,7,0,0,0,5,2.06,9,9,0,0,0,9.07-9v0a11.51,11.51,0,0,0-7-10.22,13.89,13.89,0,0,0-2.43-.74c-1.1-.22-2.13-.37-2.21-.37-3.09-.36-10.81-2.79-11.32-9.63,0,0-2.28,10.3-6.85,13.09a7.52,7.52,0,0,1-1.69.59,9.71,9.71,0,0,1-1.62.22c-7.43.44-15.3-1.91-20.74-7.5,0,0-3.68-3-5.59-11.48C13.9,49.09,13,45.41,12.5,42a30.85,30.85,0,0,1-.37-3.09c0-3.57,2.21-6,5-6.38h15c2.57,0,4-.66,5-1.55,1.25-1.17,1.54-2.87,1.54-4.85V10.61c.35-2.76,2.81-5,6.38-5h1.77a16.46,16.46,0,0,1,2.43.18,18.79,18.79,0,0,1,2,.41,7.79,7.79,0,0,1,5.45,5.66L69.34,14.1c4,.73,14,1.39,16,11.47,4.48,24,1.76,47.23,1.54,47.23-3.16,22.66-22,21.55-22,21.55A16.27,16.27,0,0,1,55.84,91.58Zm17-48.23c-2.44-.25-4.5.74-5.26,2.58a2.05,2.05,0,0,0-.21,1,.63.63,0,0,0,.38.37,16.57,16.57,0,0,0,4.5.9,16.09,16.09,0,0,0,4.58.19.57.57,0,0,0,.45-.26,1.91,1.91,0,0,0,.05-1.06C77,45.1,75.25,43.68,72.8,43.35Z"/>
</svg>
