<svg id="レイヤー_1" data-name="レイヤー 1" xmlns="http://www.w3.org/2000/svg" width="100" height="100" viewBox="0 0 100 100">
  <defs>
    <style>
      .cls-1 {
        fill-rule: evenodd;
      }
    </style>
  </defs>
  <title>insta</title>
  <g id="Page-1">
    <g id="Dribbble-Light-Preview">
      <g id="icons">
        <path class="cls-1" d="M30.42,3.16C22.7,3.51,16,5.4,10.6,10.78S3.32,22.9,3,30.54c-.22,4.77-1.49,40.79,2.19,50.23A23.92,23.92,0,0,0,19,94.54a34.65,34.65,0,0,0,11.46,2.18c42,1.91,57.58.87,64.15-16a34.1,34.1,0,0,0,2.19-11.42c1.92-42.12-.31-51.26-7.63-58.57C83.32,5,76.49,1,30.42,3.16m.38,85.09A25.82,25.82,0,0,1,22,86.63a15.38,15.38,0,0,1-8.95-8.92c-2.81-7.18-1.88-41.27-1.63-46.79s1.34-10.34,5.15-14.15c4.72-4.71,10.82-7,52.32-5.14,5.42.25,10.37,1.34,14.19,5.14,4.72,4.71,7.06,10.85,5.15,52.2a25.73,25.73,0,0,1-1.62,8.74C82.38,88.65,72.56,90.17,30.8,88.25M69.39,24.82a5.67,5.67,0,1,0,5.66-5.65,5.66,5.66,0,0,0-5.66,5.65M25.64,49.94A24.23,24.23,0,1,0,49.87,25.78,24.2,24.2,0,0,0,25.64,49.94m8.5,0a15.73,15.73,0,1,1,15.73,15.7,15.7,15.7,0,0,1-15.73-15.7"/>
      </g>
    </g>
  </g>
</svg>
