<svg id="レイヤー_1" data-name="レイヤー 1" xmlns="http://www.w3.org/2000/svg" width="100" height="100" viewBox="0 0 100 100">
  <defs>
    <style>
      .cls-1 {
        fill-rule: evenodd;
      }
    </style>
  </defs>
  <title>line</title>
  <g>
    <path class="cls-1" d="M76,6H24A18.06,18.06,0,0,0,6,24V76A18.06,18.06,0,0,0,24,94H76A18.06,18.06,0,0,0,94,76V24A18.06,18.06,0,0,0,76,6Zm1.39,54a5.77,5.77,0,0,1-.6.75l0,0a27.64,27.64,0,0,1-3.51,3.5c-8.93,8.26-23.62,18.08-25.56,16.56C46,79.54,50.47,73.09,45.32,72l-1.08-.14h0C29.11,69.73,17.63,59.16,17.63,46.43c0-14.28,14.45-25.85,32.28-25.85S82.2,32.15,82.2,46.43A22.05,22.05,0,0,1,77.38,60Z"/>
    <path class="cls-1" d="M31.18,54.68h6.51A1.69,1.69,0,0,0,39.38,53v-.14a1.69,1.69,0,0,0-1.69-1.68H33V40.5a1.69,1.69,0,0,0-1.69-1.68h-.14A1.69,1.69,0,0,0,29.5,40.5V53A1.69,1.69,0,0,0,31.18,54.68Zm40.35-7.83v-.14A1.69,1.69,0,0,0,69.85,45H65.16V42.36h4.69a1.69,1.69,0,0,0,1.68-1.69v-.14a1.69,1.69,0,0,0-1.68-1.68H63.34a1.69,1.69,0,0,0-1.69,1.68V53a1.69,1.69,0,0,0,1.69,1.69h6.51A1.69,1.69,0,0,0,71.53,53v-.14a1.69,1.69,0,0,0-1.68-1.68H65.16V48.53h4.69a1.69,1.69,0,0,0,1.68-1.68ZM59,54.17h0A1.68,1.68,0,0,0,59.5,53V40.5a1.69,1.69,0,0,0-1.69-1.68h-.14A1.69,1.69,0,0,0,56,40.5v7.33L49.9,39.67a1.68,1.68,0,0,0-1.46-.85H48.3a1.68,1.68,0,0,0-1.68,1.68V53a1.69,1.69,0,0,0,1.68,1.69h.14A1.69,1.69,0,0,0,50.12,53V45.52l6.13,8.38.13.17h0a1.46,1.46,0,0,0,.65.48,1.74,1.74,0,0,0,.64.13h.14a1.66,1.66,0,0,0,.79-.2,1.09,1.09,0,0,0,.41-.31Zm-16.59.51h.14A1.69,1.69,0,0,0,44.24,53V40.5a1.68,1.68,0,0,0-1.68-1.68h-.14a1.68,1.68,0,0,0-1.68,1.68V53a1.69,1.69,0,0,0,1.68,1.69Z"/>
  </g>
</svg>
