<svg xmlns="http://www.w3.org/2000/svg" viewBox="0 0 64 64"><g id="レイヤー_2" data-name="レイヤー 2"><path d="M32.00012,8.82428a1.2,1.2,0,0,0-1.2,1.2v4.35633A12.19084,12.19084,0,0,0,19.99493,24.39288c-.34649,1.98261-.67425,3.933-1.146,5.8183L14.35406,48.1908a1.2,1.2,0,0,0,1.16419,1.491h9.90143a6.68785,6.68785,0,0,0,13.16083,0h9.90124a1.2,1.2,0,0,0,1.16419-1.491L45.15106,30.21124h0c-.47162-1.88543-.7995-3.83581-1.146-5.81836a12.19046,12.19046,0,0,0-10.805-10.01226V10.02429A1.2,1.2,0,0,0,32.00012,8.82428Zm3.03607,42.6936A4.263,4.263,0,0,1,27.897,49.68182h8.20624A4.28614,4.28614,0,0,1,35.03619,51.51788ZM41.641,24.80646c.34509,1.97088.68005,3.97864,1.18176,5.98687L46.94482,47.2818H17.05511l4.12214-16.48847c.50189-2.0083.83667-4.016,1.18176-5.98687a9.79006,9.79006,0,0,1,19.282,0Z"/></g></svg>