<svg xmlns="http://www.w3.org/2000/svg" viewBox="0 0 64 64"><g id="レイヤー_2" data-name="レイヤー 2"><path d="M57.84985,32.49939c.01258-.0271.02143-.05432.03192-.08246a1.07515,1.07515,0,0,0,0-.834c-.01049-.02814-.0194-.05524-.03192-.08234a1.18914,1.18914,0,0,0-.22271-.33045c-.01685-.01751-.03644-.03033-.05433-.04681a1.18331,1.18331,0,0,0-.14123-.12183L38.85718,18.61853a1.2,1.2,0,1,0-1.33124,1.997h-.00006L52.80261,30.79993H7.23407a1.2,1.2,0,1,0,0,2.4h45.5686L37.52588,43.38452a1.2,1.2,0,1,0,1.3313,1.99689l18.5744-12.38306a1.18185,1.18185,0,0,0,.14123-.12176c.01789-.01648.03748-.02936.05433-.04688A1.1885,1.1885,0,0,0,57.84985,32.49939Z"/></g></svg>