<svg xmlns="http://www.w3.org/2000/svg" viewBox="0 0 64 64"><g id="レイヤー_2" data-name="レイヤー 2"><path d="M13.4256,54.87018H50.57446a1.19989,1.19989,0,0,0,1.2-1.2v-37.149a1.2,1.2,0,0,0-1.2-1.2H45.58307v-4.9914a1.2,1.2,0,0,0-2.4,0v4.9914h-22.366v-4.9914a1.2,1.2,0,0,0-2.4,0v4.9914H13.4256a1.2,1.2,0,0,0-1.2,1.2v37.149a1.19989,1.19989,0,0,0,1.2,1.2Zm35.94885-2.4H14.62555V30.10425h34.7489Zm-34.7489-34.749h3.7915v4.99152a1.2,1.2,0,0,0,2.4,0V17.72119H43.183v4.99152a1.2,1.2,0,0,0,2.4,0V17.72119h3.79138v9.983H14.62555Z"/><path d="M26.68671,38.7655a1.2,1.2,0,0,0,1.66937.30542L30.8,37.38293V47.4787a1.2,1.2,0,0,0,2.4,0V35.09576a1.2,1.2,0,0,0-1.882-.98742l-4.32586,2.98779A1.2,1.2,0,0,0,26.68671,38.7655Z"/></g></svg>