<svg xmlns="http://www.w3.org/2000/svg" viewBox="0 0 64 64"><g id="レイヤー_2" data-name="レイヤー 2"><path d="M7.23407,51.77448H56.76593a1.19991,1.19991,0,0,0,1.2-1.2V19.617a1.2,1.2,0,0,0-1.2-1.2h-11.886l-5.83984-5.84a1.20809,1.20809,0,0,0-.84857-.35151H25.80847A1.208,1.208,0,0,0,24.96,12.577l-5.84,5.84H7.23407a1.2,1.2,0,0,0-1.2,1.2V50.57446a1.19991,1.19991,0,0,0,1.2,1.2Zm19.07147-37.149H37.69446L41.4859,18.417H22.514ZM8.434,20.817H55.566V49.37451H8.434Z"/><path d="M32,22.8465A12.3447,12.3447,0,1,0,44.3446,35.19116,12.34513,12.34513,0,0,0,32,22.8465Zm7.03192,19.37664a9.9447,9.9447,0,1,1,2.91272-7.032A9.90812,9.90812,0,0,1,39.03192,42.22314Z"/><path d="M32,28.41888a6.77231,6.77231,0,1,0,6.7724,6.77228A6.77268,6.77268,0,0,0,32,28.41888Zm3.09174,9.864a4.3723,4.3723,0,1,1,1.28064-3.09174A4.3536,4.3536,0,0,1,35.09174,38.2829Z"/></g></svg>