<svg xmlns="http://www.w3.org/2000/svg" viewBox="0 0 64 64"><g id="レイヤー_2" data-name="レイヤー 2"><path d="M19.71442,37.22656a1.2,1.2,0,0,0-1.697-1.697l-4.86463,4.86438a6.7037,6.7037,0,0,0,0,9.48029l.973.973a6.7037,6.7037,0,0,0,9.48023.00006L37.713,36.74011a6.70355,6.70355,0,0,0,0-9.48028,1.2,1.2,0,0,0-1.697,1.69708,4.30348,4.30348,0,0,1,0,6.08612l-14.107,14.10712a4.30373,4.30373,0,0,1-6.08613-.00006l-.973-.9729a4.30359,4.30359,0,0,1,0-6.08619Z"/><path d="M49.15015,21.90894,44.28558,26.7735a1.2,1.2,0,1,0,1.69709,1.697L50.84723,23.606a6.70378,6.70378,0,0,0,0-9.48023l-.00006-.00006-.973-.97284a6.70341,6.70341,0,0,0-9.48023.00006L26.28705,27.25983a6.7034,6.7034,0,0,0,0,9.48028,1.2,1.2,0,1,0,1.697-1.69708,4.30334,4.30334,0,0,1,0-6.08612l14.107-14.107a4.30352,4.30352,0,0,1,6.08613,0l.973.97284a4.30373,4.30373,0,0,1,0,6.08619Z"/></g></svg>