<svg xmlns="http://www.w3.org/2000/svg" viewBox="0 0 64 64"><g id="レイヤー_2" data-name="レイヤー 2"><path d="M44.9024,8.32483H19.0976A10.77442,10.77442,0,0,0,8.32489,19.0976v18.313A10.77446,10.77446,0,0,0,19.0976,48.18341H39.20844l14.73,7.365a1.2,1.2,0,0,0,1.61017-1.60962L51.526,45.88617a10.73631,10.73631,0,0,0,4.14917-8.47553V19.0976A10.77448,10.77448,0,0,0,44.9024,8.32483Zm8.37275,29.08581A8.35419,8.35419,0,0,1,49.35822,44.494a1.12773,1.12773,0,0,0-.13056.12414,1.18293,1.18293,0,0,0-.17267.16419,1.15315,1.15315,0,0,0-.11236.19891.79651.79651,0,0,0-.12134.43378,1.14734,1.14734,0,0,0-.00733.22705,1.18091,1.18091,0,0,0,.06232.23059,1.13283,1.13283,0,0,0,.04694.17365l2.8706,5.74646L40.02832,45.9101c-.01154-.0058-.02417-.00434-.03583-.00971a3.63812,3.63812,0,0,0-.46429-.10962c-.01288-.00043-.02356-.00738-.0365-.00738H19.0976a8.37414,8.37414,0,0,1-8.37275-8.37275V19.0976a8.37414,8.37414,0,0,1,8.37275-8.37275H44.9024a8.374,8.374,0,0,1,8.37275,8.37275Z"/></g></svg>