<svg xmlns="http://www.w3.org/2000/svg" viewBox="0 0 64 64"><g id="レイヤー_2" data-name="レイヤー 2"><path d="M64.13007,39.44958l-.00184-.01837a1.19879,1.19879,0,0,0-.16955-.39581c-.00775-.01215-.00824-.02643-.01648-.03839L54.34283,25.08636v-4.183a4.88309,4.88309,0,0,0-4.88275-4.88281h-16.26v-5.6908a1.2,1.2,0,0,0-2.4,0v5.6908H14.54a4.8831,4.8831,0,0,0-4.88281,4.88281v4.183L.0578,38.997c-.00836.01208-.00879.02655-.0166.03882a1.19972,1.19972,0,0,0-.16943.39532l-.00184.0185a1.19727,1.19727,0,0,0-.00427.40063c.00342.02338.00427.04584.009.069.00336.01648.00239.03326.00647.04968a11.31934,11.31934,0,0,0,21.952,0c.00409-.01629.00311-.033.00647-.04944.00482-.02337.00561-.04614.00909-.06982a1.19646,1.19646,0,0,0-.00433-.4l-.00183-.01856a1.2,1.2,0,0,0-.1695-.39557c-.00781-.0122-.00824-.02655-.01654-.03857l-9.5993-13.91052-.00006-4.18311A2.48656,2.48656,0,0,1,14.54,18.42053H30.80005V52.47015H20.25183a1.2,1.2,0,0,0,0,2.4H43.74817a1.2,1.2,0,0,0,0-2.4H33.20007V18.42053h16.26a2.48655,2.48655,0,0,1,2.48279,2.48285v4.183L42.34351,38.997c-.00837.01208-.00879.02655-.01661.03882a1.19993,1.19993,0,0,0-.16943.39532l-.00183.0185a1.19727,1.19727,0,0,0-.00427.40063c.00342.02338.00427.04584.009.069.00336.01648.00238.03326.00647.04968a11.31937,11.31937,0,0,0,21.952,0c.00409-.01642.00311-.03314.00647-.04962.00476-.02319.00561-.04571.009-.06915A1.19853,1.19853,0,0,0,64.13007,39.44958ZM10.85712,27.573l7.52557,10.90552H3.33154Zm.00006,18.54846a8.9163,8.9163,0,0,1-8.12537-5.24292H18.98248A8.91621,8.91621,0,0,1,10.85718,46.12146ZM53.14282,27.573,60.6684,38.47852H45.61725Zm.00006,18.54846a8.9163,8.9163,0,0,1-8.12536-5.24292H61.26825A8.91617,8.91617,0,0,1,53.14288,46.12146Z"/></g></svg>