<svg xmlns="http://www.w3.org/2000/svg" viewBox="0 0 64 64"><g id="レイヤー_2" data-name="レイヤー 2"><path d="M7.23407,54.87018H56.766a1.19989,1.19989,0,0,0,1.2-1.2V28.90424a1.2,1.2,0,1,0-2.4,0v23.566H8.434v-23.566a1.2,1.2,0,1,0-2.4,0V53.67017a1.19989,1.19989,0,0,0,1.2,1.2Z"/><path d="M32,9.12976a1.2,1.2,0,0,0-1.2,1.2V38.39008L20.46564,28.05573a1.2,1.2,0,1,0-1.69709,1.697L31.15149,42.13568a1.18308,1.18308,0,0,0,.35608.23645,1.13423,1.13423,0,0,0,.11908.04236,1.18318,1.18318,0,0,0,.79614-.00958c.01068-.004.022-.00385.03253-.00812l.00391-.001a1.18456,1.18456,0,0,0,.35181-.23523c.01141-.01056.02642-.01385.03747-.0249L45.23157,29.75275a1.2,1.2,0,0,0-1.697-1.69709L33.2,38.39008V10.32977A1.2,1.2,0,0,0,32,9.12976Z"/></g></svg>