<svg xmlns="http://www.w3.org/2000/svg" viewBox="0 0 64 64"><g id="レイヤー_2" data-name="レイヤー 2"><path d="M4.01294,32.22791a1.19409,1.19409,0,0,0,.07281.1986,1.15872,1.15872,0,0,0,.10578.23249c.00921.01391.01013.03039.02.04406C9.83875,40.46979,20.20074,45.57739,32,45.58295c11.79926-.00556,22.16113-5.11316,27.78845-12.87989.00989-.01367.01081-.03015.02-.04406a1.15872,1.15872,0,0,0,.10578-.23249.95732.95732,0,0,0-.00043-.85412,1.15708,1.15708,0,0,0-.10523-.23139c-.00921-.014-.01019-.03051-.02008-.04419C54.16113,23.53021,43.79926,18.42261,32,18.417c-11.79926.00562-22.16125,5.11322-27.78845,12.87982-.00989.01368-.01081.03016-.02.04407a1.158,1.158,0,0,0-.10559.23218,1.19356,1.19356,0,0,0-.073.1991,3.46092,3.46092,0,0,0,0,.45575ZM32,20.817c10.73175-.00537,20.09546,4.53064,25.2973,11.18292C52.09546,38.65228,42.73175,43.18835,32,43.183c-10.73175.00537-20.09558-4.5307-25.2973-11.183C11.90442,25.34772,21.26825,20.81158,32,20.817Z"/><path d="M32,39.39148a7.39148,7.39148,0,1,0-7.39154-7.39154A7.3919,7.3919,0,0,0,32,39.39148Zm-3.52954-10.921a4.99139,4.99139,0,1,1-1.462,3.52942A4.9706,4.9706,0,0,1,28.47046,28.47052Z"/></g></svg>