<svg xmlns="http://www.w3.org/2000/svg" viewBox="0 0 64 64"><g id="レイヤー_2" data-name="レイヤー 2"><path d="M21.90393,54.51874a1.20778,1.20778,0,0,0,.35144-.84851V10.32971a1.2,1.2,0,0,0-1.19995-1.2H7.922a1.20011,1.20011,0,0,0-1.2,1.2V53.67023a1.2,1.2,0,0,0,1.2,1.2H21.05542A1.20794,1.20794,0,0,0,21.90393,54.51874ZM9.122,11.52972H19.85541V52.47021H9.122Z"/><path d="M14.48877,39.14258a1.2,1.2,0,0,0-1.2,1.2v8.94983a1.2,1.2,0,1,0,2.4,0V40.34259A1.2,1.2,0,0,0,14.48877,39.14258Z"/><path d="M38.56677,9.1297H25.43323a1.2001,1.2001,0,0,0-1.2,1.2V53.67023a1.2,1.2,0,0,0,1.2,1.2H38.56677a1.2001,1.2001,0,0,0,1.2-1.2V10.32971a1.2001,1.2001,0,0,0-1.2-1.2Zm-11.93359,2.4H37.36676V52.47021H26.63318Z"/><path d="M32,39.14258a1.2,1.2,0,0,0-1.2,1.2v8.94983a1.2,1.2,0,1,0,2.4,0V40.34259A1.2,1.2,0,0,0,32,39.14258Z"/><path d="M56.078,9.1297H42.94464a1.2,1.2,0,0,0-1.2,1.2V53.67023a1.19989,1.19989,0,0,0,1.2,1.2H56.078a1.20011,1.20011,0,0,0,1.2-1.2V10.32971a1.20011,1.20011,0,0,0-1.2-1.2Zm-11.93341,2.4H54.878V52.47021H44.14459Z"/><path d="M49.51123,39.14258a1.2,1.2,0,0,0-1.2,1.2v8.94983a1.2,1.2,0,1,0,2.4,0V40.34259A1.2,1.2,0,0,0,49.51123,39.14258Z"/></g></svg>