<svg xmlns="http://www.w3.org/2000/svg" viewBox="0 0 64 64"><g id="レイヤー_2" data-name="レイヤー 2"><path d="M51.77448,19.61707c0-.02625-.01331-.0481-.015-.07392a1.21248,1.21248,0,0,0-.33649-.7746L39.04,6.3855a1.18443,1.18443,0,0,0-.34473-.23242,1.16808,1.16808,0,0,0-.11249-.04,1.18235,1.18235,0,0,0-.31738-.064c-.02582-.00165-.04767-.01495-.07391-.01495h-24.766a1.19991,1.19991,0,0,0-1.2,1.19995V56.76593a1.19991,1.19991,0,0,0,1.2,1.2h37.149a1.19991,1.19991,0,0,0,1.2-1.2Zm-12.383-9.486,8.286,8.286H39.39148ZM14.62549,55.566V8.434h22.366v11.183a1.2,1.2,0,0,0,1.2,1.2h11.183V55.566Z"/><path d="M19.617,27.00848H32.00006a1.2,1.2,0,1,0,0-2.4H19.617a1.2,1.2,0,0,0,0,2.4Z"/><path d="M38.19147,33.89575H19.617a1.2,1.2,0,0,0,0,2.4H38.19147a1.2,1.2,0,0,0,0-2.4Z"/><path d="M38.19147,43.183H19.617a1.2,1.2,0,1,0,0,2.4H38.19147a1.2,1.2,0,1,0,0-2.4Z"/></g></svg>