<svg xmlns="http://www.w3.org/2000/svg" viewBox="0 0 64 64"><g id="レイヤー_2" data-name="レイヤー 2"><path d="M48.32727,56.06659a1.20794,1.20794,0,0,0,.3515-.84851V11.87756a1.2,1.2,0,0,0-1.2-1.2H39.3916V8.78192a1.2001,1.2001,0,0,0-1.2-1.2H25.80853a1.2001,1.2001,0,0,0-1.2,1.2v1.89563H16.52124a1.2001,1.2001,0,0,0-1.2,1.2V55.21808a1.2001,1.2001,0,0,0,1.2,1.2H47.47876A1.20794,1.20794,0,0,0,48.32727,56.06659ZM27.00854,9.98193h9.983v3.79139h-9.983ZM46.27875,54.01807H17.72125V13.07758h6.88727v1.89575a1.2001,1.2001,0,0,0,1.2,1.2H38.19159a1.2001,1.2001,0,0,0,1.2-1.2V13.07758h6.88715Z"/><path d="M38.19159,22.37262H25.80853a1.2,1.2,0,0,0,0,2.4H38.19159a1.2,1.2,0,1,0,0-2.4Z"/><path d="M38.19159,29.91333H25.80853a1.2,1.2,0,1,0,0,2.4H38.19159a1.2,1.2,0,1,0,0-2.4Z"/><path d="M38.19159,37.4541H25.80853a1.2,1.2,0,0,0,0,2.4H38.19159a1.2,1.2,0,0,0,0-2.4Z"/><path d="M38.19159,44.99481H25.80853a1.2,1.2,0,1,0,0,2.4H38.19159a1.2,1.2,0,1,0,0-2.4Z"/></g></svg>