<svg xmlns="http://www.w3.org/2000/svg" viewBox="0 0 64 64"><g id="レイヤー_2" data-name="レイヤー 2"><path d="M59.86176,23.20129H50.93011V19.33563a1.19989,1.19989,0,0,0-1.2-1.2H29.96423l-4.71435-4.71436a1.20788,1.20788,0,0,0-.84851-.35144H4.13831a1.19989,1.19989,0,0,0-1.2,1.2V44.66437A6.26617,6.26617,0,0,0,9.2041,50.93018h40.526a1.20355,1.20355,0,0,0,1.1142-.75434L60.97589,24.847a1.2,1.2,0,0,0-1.11413-1.64569ZM5.33826,44.66437V15.46979h18.566l4.71435,4.71435a1.20778,1.20778,0,0,0,.84851.35144H48.53009v2.66571H19.33557a1.20341,1.20341,0,0,0-1.1142.75434L8.42316,48.45142a3.868,3.868,0,0,1-3.0849-3.78705Zm43.5794,3.86578H10.9765L20.148,25.60132H58.08923Z"/></g></svg>