<svg xmlns="http://www.w3.org/2000/svg" viewBox="0 0 64 64"><g id="レイヤー_2" data-name="レイヤー 2"><path d="M31.8009,51.76434l.00952.00049c.06385.00061.12555.00958.18952.00958s.12567-.009.18951-.00958l.00952-.00049a19.76528,19.76528,0,0,0-.00024-39.52874l-.00891-.00049c-.064-.00061-.12579-.00959-.18988-.00959-.064,0-.12573.009-.18958.00959l-.00952.00049a19.76528,19.76528,0,0,0,.00006,39.52874ZM14.6861,33.2h7.89111a25.86509,25.86509,0,0,0,6.40112,15.89484A17.29571,17.29571,0,0,1,14.6861,33.2ZM31.99994,15.19116A23.49037,23.49037,0,0,1,39.02277,30.8H24.97723A23.49025,23.49025,0,0,1,31.99994,15.19116ZM39.02277,33.2a23.4901,23.4901,0,0,1-7.02283,15.60877A23.49,23.49,0,0,1,24.97723,33.2Zm5.26281,11.08557a17.3219,17.3219,0,0,1-9.264,4.80927A25.86491,25.86491,0,0,0,41.42279,33.2H49.3139A17.30506,17.30506,0,0,1,44.28558,44.28558ZM49.3139,30.8H41.42279a25.86451,25.86451,0,0,0-6.40118-15.89484A17.29584,17.29584,0,0,1,49.3139,30.8ZM19.71436,19.71436a17.321,17.321,0,0,1,9.26391-4.80921A25.86488,25.86488,0,0,0,22.57721,30.8H14.6861A17.30545,17.30545,0,0,1,19.71436,19.71436Z"/></g></svg>