<svg xmlns="http://www.w3.org/2000/svg" viewBox="0 0 64 64"><g id="レイヤー_2" data-name="レイヤー 2"><path d="M57.5484,53.51422a1.19994,1.19994,0,0,0-1.2-1.2H8.85156V10.48572a1.2,1.2,0,0,0-2.4,0v43.0285a1.19989,1.19989,0,0,0,1.2,1.2H56.34845A1.2,1.2,0,0,0,57.5484,53.51422Z"/><path d="M18.18073,46.3631V23.524a1.2,1.2,0,1,0-2.4,0V46.3631a1.2,1.2,0,1,0,2.4,0Z"/><path d="M27.43372,46.3631V30.75421a1.2,1.2,0,0,0-2.4,0V46.3631a1.2,1.2,0,0,0,2.4,0Z"/><path d="M36.68652,46.3631V21.314a1.2,1.2,0,0,0-2.4,0V46.3631a1.2,1.2,0,1,0,2.4,0Z"/><path d="M45.93939,46.3631V36.33179a1.2,1.2,0,0,0-2.4,0V46.3631a1.2,1.2,0,0,0,2.4,0Z"/></g></svg>