<svg xmlns="http://www.w3.org/2000/svg" viewBox="0 0 64 64"><g id="レイヤー_2" data-name="レイヤー 2"><path d="M16.42548,42.1698A181.10439,181.10439,0,0,0,31.30414,53.616a1.20063,1.20063,0,0,0,1.39172,0c7.91284-5.63452,14.14923-10.34363,18.48126-14.91034a28.75433,28.75433,0,0,0,5.01532-6.8758,16.16346,16.16346,0,0,0,1.7735-7.28253,14.96069,14.96069,0,0,0-3.75323-10.07312,13.06924,13.06924,0,0,0-9.82965-4.3125,19.18382,19.18382,0,0,0-9.748,2.6413,18.19178,18.19178,0,0,0-2.635,1.86877A18.18429,18.18429,0,0,0,29.365,12.803a19.18339,19.18339,0,0,0-9.74792-2.6413,13.06951,13.06951,0,0,0-9.82978,4.3125A14.96056,14.96056,0,0,0,6.03406,24.5473a16.16346,16.16346,0,0,0,1.7735,7.28253C9.54913,35.33362,12.476,38.65533,16.42548,42.1698Zm-4.85981-26.084a10.65552,10.65552,0,0,1,8.0514-3.52417,16.77812,16.77812,0,0,1,8.53424,2.31182,15.91274,15.91274,0,0,1,2.24286,1.58179c.25067.213.4378.388.55853.5058l.1311.13135.02759.02893.00421.00451.00049-.00048a1.19791,1.19791,0,0,0,1.76782,0l.00049.00048a14.05362,14.05362,0,0,1,3.05743-2.30658,16.77658,16.77658,0,0,1,8.44123-2.25762,10.65544,10.65544,0,0,1,8.05127,3.52417A12.56507,12.56507,0,0,1,55.566,24.5473a13.75046,13.75046,0,0,1-1.52356,6.21607c-1.52191,3.07568-4.23065,6.20916-8.0625,9.61279A172.66557,172.66557,0,0,1,32.00067,51.16235c-7.54175-5.38305-13.45752-9.90564-17.43573-14.1076a26.40692,26.40692,0,0,1-4.60736-6.29138A13.75065,13.75065,0,0,1,8.434,24.5473,12.56507,12.56507,0,0,1,11.56567,16.08582Z"/></g></svg>