<svg xmlns="http://www.w3.org/2000/svg" viewBox="0 0 64 64"><g id="レイヤー_2" data-name="レイヤー 2"><path d="M32.72009,9.36981a1.2009,1.2009,0,0,0-1.44,0L6.5141,27.94421a1.2,1.2,0,0,0,.72,2.16h4.99139V53.67017a1.19991,1.19991,0,0,0,1.2,1.2h37.149a1.2,1.2,0,0,0,1.2-1.2V30.10425h4.99139a1.2,1.2,0,0,0,.72-2.16Zm4.27137,43.1004H27.00854V42.48712h9.98292Zm12.38305,0h-9.983v-11.183a1.2,1.2,0,0,0-1.2-1.2H25.80853a1.2,1.2,0,0,0-1.2,1.2v11.183h-9.983v-22.366h34.749Zm1.2-24.766H10.83411L32.00006,11.82977,53.16589,27.70422Z"/></g></svg>