<svg xmlns="http://www.w3.org/2000/svg" viewBox="0 0 64 64"><g id="レイヤー_2" data-name="レイヤー 2"><path d="M6.10394,50.923a1.16761,1.16761,0,0,0,.08252.20112,1.15044,1.15044,0,0,0,.13141.1972,1.15982,1.15982,0,0,0,.06769.10162,1.16825,1.16825,0,0,0,.09979.06647c.03095.02545.04907.06073.08313.08344a1.11591,1.11591,0,0,0,.10938.0448,1.2334,1.2334,0,0,0,.449.13525c.03662.00342.07031.02148.10724.02148h49.5318a1.19989,1.19989,0,0,0,1.2-1.2V13.42554a1.2,1.2,0,0,0-1.2-1.2H7.23413a1.2,1.2,0,0,0-1.2,1.2V50.57446c0,.039.01886.07465.0227.11328A1.15874,1.15874,0,0,0,6.10394,50.923Zm3.37232-1.54858L19.80353,33.88354l11.348,11.34791a1.2,1.2,0,0,0,1.847-.18287l11.57092-17.3565L55.56592,38.6886V49.37445Zm46.08966-14.08L45.23151,24.96a1.2,1.2,0,0,0-1.847.18286l-11.571,17.35651-11.348-11.34784a1.2,1.2,0,0,0-1.847.18286L8.43408,46.61115V14.62555H55.56592Z"/><path d="M16.5213,27.00848a4.29578,4.29578,0,1,0-4.29578-4.29577A4.29611,4.29611,0,0,0,16.5213,27.00848Zm0-6.19152a1.89575,1.89575,0,1,1-1.89581,1.89575A1.89876,1.89876,0,0,1,16.5213,20.817Z"/></g></svg>