<svg xmlns="http://www.w3.org/2000/svg" viewBox="0 0 64 64"><g id="レイヤー_2" data-name="レイヤー 2"><path d="M53.84,19.47864a1.2,1.2,0,0,0,2.4,0L56.24,8.92511a1.2,1.2,0,0,0-1.2-1.2H44.48651a1.2,1.2,0,1,0,0,2.4h7.72614L28.23108,34.10669a1.2,1.2,0,0,0,1.69708,1.69708L53.84,11.89191Z"/><path d="M8.11145,13.98712a1.20767,1.20767,0,0,0-.35144.84851v40.2392a1.19989,1.19989,0,0,0,1.2,1.2h40.2392a1.2,1.2,0,0,0,1.2-1.2V28.73889a1.2,1.2,0,1,0-2.4,0h-.00006V53.87482H10.16V16.03564H35.84308a1.2,1.2,0,0,0,0-2.4H8.96A1.208,1.208,0,0,0,8.11145,13.98712Z"/></g></svg>