<svg xmlns="http://www.w3.org/2000/svg" viewBox="0 0 64 64"><g id="レイヤー_2" data-name="レイヤー 2"><path d="M11.1037,23.91278H20.391a1.2,1.2,0,0,0,1.2-1.2V13.42548a1.2,1.2,0,0,0-1.2-1.2H11.1037a1.20011,1.20011,0,0,0-1.2,1.2v9.28729a1.2001,1.2001,0,0,0,1.2,1.2Zm1.2-9.28729h6.88721l.00006,6.88727H12.30371Z"/><path d="M9.90369,36.64355a1.2,1.2,0,0,0,1.2,1.2H20.391a1.19989,1.19989,0,0,0,1.2-1.2v-9.2871a1.19989,1.19989,0,0,0-1.2-1.2H11.1037a1.2,1.2,0,0,0-1.2,1.2Zm2.4-8.08715h6.88727l.00006,6.8872H12.30365Z"/><path d="M9.90369,50.57452a1.2,1.2,0,0,0,1.2,1.2H20.391a1.19991,1.19991,0,0,0,1.2-1.2V41.28723a1.19989,1.19989,0,0,0-1.2-1.2H11.1037a1.2,1.2,0,0,0-1.2,1.2Zm2.4-8.08728h6.88721l.00006,6.88727H12.30371Z"/><path d="M52.89636,16.86914H29.67822a1.2,1.2,0,1,0,0,2.4H52.89636a1.2,1.2,0,0,0,0-2.4Z"/><path d="M52.89636,30.80005H29.67822a1.2,1.2,0,0,0,0,2.4H52.89636a1.2,1.2,0,0,0,0-2.4Z"/><path d="M54.09631,45.93085a1.2,1.2,0,0,0-1.2-1.2H29.67822a1.2,1.2,0,0,0,0,2.4H52.89636A1.2,1.2,0,0,0,54.09631,45.93085Z"/></g></svg>