<svg id="レイヤー_1" data-name="レイヤー 1" xmlns="http://www.w3.org/2000/svg" viewBox="0 0 400 130"><defs><style>.cls-1{fill:#231815;}</style></defs><path class="cls-1" d="M344.62015,129.43214a.44293.44293,0,0,1-.24641-.07559.438.438,0,0,1-.11639-.6092l18.27-26.9802L327.5746,45.82872l-27.86453,60.37139a.5714.5714,0,0,1-1.06118-.05971L265.02189,2.35927,240.64023,126.01351a.57074.57074,0,0,1-1.09747.08163L215.91392,59.24248l-14.3321,42.41961a.56527.56527,0,0,1-.45652.38169L130.22214,112.6791l-.11187-.0461L65.27192,86.15618.80618,115.4583a.57044.57044,0,0,1-.78-.69007L17.0256,60.28931a.57122.57122,0,0,1,.81176-.33408L65.22354,85.15772,119.769,38.82215a.57043.57043,0,0,1,.93572.359L130.70133,111.72l70.10954-10.5159L215.3667,58.11781a.56886.56886,0,0,1,.53664-.38775h.003a.56856.56856,0,0,1,.53815.38321l23.55175,66.63119L264.39,1.02825a.56989.56989,0,0,1,.523-.4588.57592.57592,0,0,1,.579.39153L299.24146,105.12l27.77383-60.17638a.57268.57268,0,0,1,.48524-.33105.59973.59973,0,0,1,.5185.2721L363.06549,100.972l36.13334-53.35877a.43814.43814,0,1,1,.7256.49129L344.98294,129.2394A.438.438,0,0,1,344.62015,129.43214ZM17.75271,60.90456,1.06846,114.37519l63.20727-28.73ZM66.1124,85.55378l63.68042,26.0014-9.88175-71.70283Z"/></svg>