<svg id="レイヤー_1" data-name="レイヤー 1" xmlns="http://www.w3.org/2000/svg" viewBox="0 0 400 32"><defs><style>.cls-1{fill:#231815;}</style></defs><path class="cls-1" d="M18.6024,15.36824l-9.799-13.0813A.98406.98406,0,0,0,8.019,1.89388H.97923A.98055.98055,0,0,0,0,2.87314c0,.54741.01349,26.25625.01349,26.25625a.98056.98056,0,0,0,.97923.97926H8.33736a.98275.98275,0,0,0,.7941-.40613l9.48022-13.17367A.975.975,0,0,0,18.6024,15.36824ZM16.53,16.06756,7.88765,28.07884a.17138.17138,0,0,1-.13911.07128H2.14333a.17138.17138,0,0,1-.17138-.17138V4.02379a.17138.17138,0,0,1,.17138-.17138H7.44277a.17136.17136,0,0,1,.13715.06862L16.528,15.86471A.17138.17138,0,0,1,16.53,16.06756Zm54.283,12.2075v1.71371a.1224.1224,0,0,1-.12241.12241H53.71279a.97927.97927,0,0,1-.97926-.97926V2.87314a.97927.97927,0,0,1,.97926-.97926H69.657a.1224.1224,0,0,1,.12241.12241V3.73a.12244.12244,0,0,1-.12241.12241H54.86338a.17134.17134,0,0,0-.17138.17138v10.4896H64.86541a.1224.1224,0,0,1,.12241.12241v1.71371a.12244.12244,0,0,1-.12241.12241H54.692V27.98127a.17137.17137,0,0,0,.17138.17138H70.69059A.12237.12237,0,0,1,70.813,28.27506Zm38.5803-.10174h15.8209a.12242.12242,0,0,1,.12241.12241v1.7137a.12242.12242,0,0,1-.12241.12242H108.2427a.97925.97925,0,0,1-.97923-.97927V2.01545a.1224.1224,0,0,1,.12241-.12241h1.71363a.1224.1224,0,0,1,.12241.12241V28.00194A.17138.17138,0,0,0,109.3933,28.17332ZM233.22749,1.893h1.71364a.12241.12241,0,0,1,.12241.12241V22.12736a.98085.98085,0,0,1-.32219.72622l-9.06441,7.95683a.97832.97832,0,0,1-1.30985-.00379L215.312,22.857a.98228.98228,0,0,1-.32641-.72959V2.01545A.12241.12241,0,0,1,215.108,1.893h1.71364a.12241.12241,0,0,1,.12241.12241V21.57816a.24482.24482,0,0,0,.08351.18417l7.88369,6.90588a.17137.17137,0,0,0,.22583,0l7.88452-6.90588a.24483.24483,0,0,0,.08352-.18418V2.01545A.12241.12241,0,0,1,233.22749,1.893Zm57.38267,0h1.71364a.12241.12241,0,0,1,.12241.12241V29.836a.98049.98049,0,0,1-.97923.97927h-.00085a.98208.98208,0,0,1-.84765-.49048L274.46261,5.8788a.07345.07345,0,0,0-.13509.03994V30.00943a.12242.12242,0,0,1-.12241.12242h-1.71364a.12242.12242,0,0,1-.12241-.12242V2.18848a.98039.98039,0,0,1,.727-.946.99467.99467,0,0,1,1.10069.45716l16.15587,24.44555a.07345.07345,0,0,0,.13509-.03994V2.01545A.1224.1224,0,0,1,290.61016,1.893ZM179.97506,30.009a.07344.07344,0,0,1-.06908.09839h-1.88857a.12242.12242,0,0,1-.11511-.08076L168.85769,5.03081a.07345.07345,0,0,0-.13812,0l-9.0605,24.99592a.12241.12241,0,0,1-.11509.08069h-1.88772a.07345.07345,0,0,1-.06906-.09843l10.28045-28.4183a.97893.97893,0,0,1,1.84544.00253Zm169.30315,0a.07344.07344,0,0,1-.06908.09839h-1.88857a.12241.12241,0,0,1-.11511-.08076L338.16083,5.03081a.07344.07344,0,0,0-.13811,0l-9.06051,24.99592a.12239.12239,0,0,1-.11508.08069h-1.88772a.07344.07344,0,0,1-.06906-.09843L337.1708,1.59065a.97893.97893,0,0,1,1.84544.00253ZM397.89034,1.893h2.03611a.07345.07345,0,0,1,.0644.10877L384.61317,30.04637l-.10731.06355h-2.03692l-.06439-.10876,6.11951-11.15973.00009-.16469L379.40291,2.00168a.07345.07345,0,0,1,.06444-.1087h2.03532a.1224.1224,0,0,1,.10739.06367l8.01245,14.64659.12883.00006L397.783,1.95654A.12241.12241,0,0,1,397.89034,1.893Z"/></svg>