<svg xmlns="http://www.w3.org/2000/svg" viewBox="0 0 64 64"><g id="レイヤー_2" data-name="レイヤー 2"><path d="M44.88794,30.312a1.2,1.2,0,0,0-1.2,1.2V42.768H33.09161V20.031a1.19894,1.19894,0,0,0-.67389-1.0785L11.27832,8.64H43.68793V19.896a1.2,1.2,0,0,0,2.4,0V7.44a1.2001,1.2001,0,0,0-1.2-1.2H6.08c-.00965,0-.01838.00537-.028.00562a1.10511,1.10511,0,0,0-.49286.12756,1.15987,1.15987,0,0,0-.11035.05072,1.17759,1.17759,0,0,0-.14935.12231c-.02075.018-.04846.02576-.068.04529-.00653.00653-.00878.01618-.01519.02289a1.19362,1.19362,0,0,0-.20691.31055,1.16274,1.16274,0,0,0-.05225.13049,1.18811,1.18811,0,0,0-.06341.31641c-.00141.02337-.01368.04467-.01368.06817V43.968c0,.02551.01294.04681.01453.072a1.18762,1.18762,0,0,0,.06659.32971,1.152,1.152,0,0,0,.06061.1358,1.18233,1.18233,0,0,0,.16333.24219c.025.02875.04449.06.07208.08618a1.19243,1.19243,0,0,0,.30139.21515l25.807,12.58948A1.2,1.2,0,0,0,33.09161,56.56V45.168H44.88794a1.2001,1.2001,0,0,0,1.2-1.2V31.512A1.2,1.2,0,0,0,44.88794,30.312ZM7.28461,9.36212l23.407,11.41864V54.6394L7.28461,43.2207Z"/><path d="M59.02643,25.24023a1.2006,1.2006,0,0,0-.26038-.38653l-.00165-.00238L52.512,18.65979a1.2,1.2,0,0,0-1.68872,1.70538L55.00281,24.504H41.24689a1.2,1.2,0,1,0,0,2.4H55.00275l-4.17951,4.13873A1.2,1.2,0,1,0,52.512,32.74811L58.7644,26.5567l.00165-.00238a1.1973,1.1973,0,0,0,.26038-1.31409Z"/></g></svg>