<svg xmlns="http://www.w3.org/2000/svg" viewBox="0 0 64 64"><g id="レイヤー_2" data-name="レイヤー 2"><path d="M6.56842,20.61554,24.60858,32.64221V50.5744a1.2,1.2,0,0,0,2.12207.768L35.988,40.22852l7.72943,5.15295a1.1999,1.1999,0,0,0,1.77978-.5528L57.88013,13.87122l.00274-.0149a1.18707,1.18707,0,0,0,.08-.43634,1.15657,1.15657,0,0,0-.021-.12976,1.1705,1.1705,0,0,0-.04156-.25622c-.00525-.01526-.01685-.02613-.02265-.04108a2.36243,2.36243,0,0,0-.23364-.371,1.15416,1.15416,0,0,0-.11853-.1051,1.1674,1.1674,0,0,0-.24267-.15888c-.02619-.01276-.04371-.03558-.07117-.04657-.02527-.01013-.05151-.0058-.077-.0141a1.69541,1.69541,0,0,0-.4497-.05932c-.02308.00152-.04456-.00605-.06775-.00318L7.08521,18.42633a1.2,1.2,0,0,0-.51679,2.18921ZM27.00861,47.25879V34.24219l6.97113,4.64746Zm16.80951-4.69458L28.052,32.05334,54.32886,16.28723Zm-17.97577-11.984-15.259-10.17255,40.69049-5.0863Z"/></g></svg>