<svg xmlns="http://www.w3.org/2000/svg" viewBox="0 0 64 64"><g id="レイヤー_2" data-name="レイヤー 2"><path d="M8.41644,47.44055a1.19464,1.19464,0,0,0,1.09809.74079l.01031.00207H54.47516l.01037-.00207a1.19959,1.19959,0,0,0,1.18921-1.19587l.00043-.00207V17.0166a1.16706,1.16706,0,0,0-.0354-.17682,1.16849,1.16849,0,0,0-.05206-.25964,1.19564,1.19564,0,0,0-.127-.2063,1.13834,1.13834,0,0,0-.10833-.176c-.005-.00531-.012-.00695-.01709-.0122-.005-.00513-.00666-.01251-.01166-.01752a1.17412,1.17412,0,0,0-.18878-.12579,1.21694,1.21694,0,0,0-.18909-.126,7.952,7.952,0,0,0-.45032-.09564c-.007-.00012-.0133-.00409-.02032-.00409H9.52484c-.007,0-.0133.004-.02032.00409a1.19976,1.19976,0,0,0-.26984.054,1.19718,1.19718,0,0,0-.18054.04163,1.21768,1.21768,0,0,0-.18817.12543,1.17331,1.17331,0,0,0-.18964.12628c-.00507.00507-.00677.01251-.01172.01764-.005.00519-.01208.00683-.017.01214a1.13756,1.13756,0,0,0-.10809.1756,1.19487,1.19487,0,0,0-.1272.20673,1.16849,1.16849,0,0,0-.05206.25964,1.16706,1.16706,0,0,0-.0354.17682V46.9834l.00244.01227A1.19867,1.19867,0,0,0,8.41644,47.44055ZM26.39886,34.407a8.20888,8.20888,0,0,0,11.20228.00006l1.34515-1.25543L51.57812,45.78339H12.42188L25.05377,33.15155ZM53.27515,44.0863,40.7019,31.51306l12.57325-11.735ZM35.96362,32.65247a5.809,5.809,0,0,1-7.92718,0L12.56927,18.21661H51.43079ZM23.29816,31.513,10.72479,44.08636V19.778Z"/></g></svg>