<svg xmlns="http://www.w3.org/2000/svg" viewBox="0 0 64 64"><g id="レイヤー_2" data-name="レイヤー 2"><path d="M13.4256,53.8399H50.57446c.03894,0,.07465-.01886.11322-.0227a.85192.85192,0,0,0,.80164-.42841c.02551-.031.06079-.04913.08356-.08325a1.11844,1.11844,0,0,0,.04486-.1095,1.17,1.17,0,0,0,.08862-.21649,1.15685,1.15685,0,0,0,.04651-.23211c.00348-.03669.02154-.0705.02154-.10755V27.874c0-.02569-.01324-.04913-.015-.0747a1.18035,1.18035,0,0,0-.00616-.12049c-.0019-.01147.00055-.02276-.00171-.03418a1.198,1.198,0,0,0-.05475-.158c-.0127-.0368-.0221-.07208-.03827-.10748a1.16956,1.16956,0,0,0-.06751-.1264c-.0086-.0141-.009-.03052-.01818-.04438-.01514-.0227-.03925-.03405-.05561-.05542a1.15489,1.15489,0,0,0-.0943-.1275L36.36621,11.96863a6.17462,6.17462,0,0,0-8.73242,0h0L12.577,27.02539a1.16012,1.16012,0,0,0-.09418.12738c-.01642.02136-.04053.03278-.05573.05554-.00927.01392-.00964.03034-.01825.0445a1.17615,1.17615,0,0,0-.06732.1261c-.01623.03552-.02575.071-.03845.10791a1.20645,1.20645,0,0,0-.05469.15783c-.00226.01142.00019.02271-.00171.03418a1.17932,1.17932,0,0,0-.00616.12043c-.00171.02557-.01495.049-.01495.0747V52.63989a1.2,1.2,0,0,0,1.2,1.2Zm3.96319-24.766H46.61121L32,38.81476Zm31.98566,1.04224V50.39771L34.16333,40.257Zm-34.7489,0,16.7088,11.13928L46.61108,51.43988H14.62555ZM29.33087,13.66571l-.84851-.84851.84857.84845a3.77457,3.77457,0,0,1,5.3382.00006L47.67731,26.67389H16.32263Z"/></g></svg>