<svg xmlns="http://www.w3.org/2000/svg" viewBox="0 0 64 64"><g id="レイヤー_2" data-name="レイヤー 2"><path d="M7.23407,57.96594H56.766a1.2,1.2,0,0,0,1.13837-1.57947L51.71283,37.812a1.19666,1.19666,0,0,0-1.13837-.82049H44.38293a1.2,1.2,0,0,0,0,2.4l5.3266-.00006L55.101,55.56592H8.89893l5.39141-16.17444H19.617a1.2,1.2,0,0,0,0-2.4H13.42548a1.19668,1.19668,0,0,0-1.13843.82049L6.09564,56.38647a1.2,1.2,0,0,0,1.13843,1.57947Z"/><path d="M18.417,19.61707a12.22665,12.22665,0,0,0,.58136,3.368c1.25708,4.22375,4.24878,9.67358,6.93671,14.15216,2.68713,4.467,5.06854,7.91449,5.07757,7.92779a1.20009,1.20009,0,0,0,1.97474,0c.01049-.01562,3.11895-4.515,6.24212-9.89831a86.92054,86.92054,0,0,0,4.31726-8.31214,33.33014,33.33014,0,0,0,1.45484-3.8695,12.2289,12.2289,0,0,0,.58136-3.368,13.583,13.583,0,1,0-27.166,0Zm24.76593,0a9.97556,9.97556,0,0,1-.48279,2.68731c-1.11309,3.78919-4.04681,9.20844-6.69183,13.59583-1.32281,2.19916-2.5741,4.15307-3.49341,5.555-.18762.28607-.35718.5426-.515.78015-1.26239-1.90124-3.547-5.43316-5.72772-9.27313a76.95249,76.95249,0,0,1-3.82929-7.55274,28.4611,28.4611,0,0,1-1.20111-3.30523,9.55086,9.55086,0,0,1-.42486-2.48718,11.183,11.183,0,1,1,22.366,0Z"/><path d="M24.60846,19.61707A7.39148,7.39148,0,1,0,32,12.22552,7.392,7.392,0,0,0,24.60846,19.61707Zm12.38293,0a4.99148,4.99148,0,1,1-1.462-3.52955A4.97078,4.97078,0,0,1,36.99139,19.61707Z"/></g></svg>