<svg xmlns="http://www.w3.org/2000/svg" viewBox="0 0 64 64"><g id="レイヤー_2" data-name="レイヤー 2"><path d="M16.5213,57.96594H47.47876a1.19989,1.19989,0,0,0,1.2-1.2V7.234a1.2,1.2,0,0,0-1.2-1.2H16.5213a1.2,1.2,0,0,0-1.2,1.2V56.76593a1.19989,1.19989,0,0,0,1.2,1.2ZM46.27875,8.434v47.1319H17.72125V8.434Z"/><path d="M28.9043,14.62555h6.19153a1.2,1.2,0,0,0,0-2.4H28.9043a1.2,1.2,0,1,0,0,2.4Z"/><path d="M32.00006,51.77441a4.29569,4.29569,0,1,0-4.29578-4.29571A4.29615,4.29615,0,0,0,32.00006,51.77441Zm0-6.1914a1.89569,1.89569,0,1,1-1.89575,1.89569A1.89875,1.89875,0,0,1,32.00006,45.583Z"/></g></svg>