<svg xmlns="http://www.w3.org/2000/svg" viewBox="0 0 64 64"><g id="レイヤー_2" data-name="レイヤー 2"><path d="M51.77441,32a1.2,1.2,0,0,0-1.2-1.2H33.2V13.42554a1.2,1.2,0,1,0-2.4,0V30.8H13.42548a1.2,1.2,0,1,0,0,2.4H30.8V50.5744a1.2,1.2,0,0,0,2.4,0V33.2H50.57446A1.2,1.2,0,0,0,51.77441,32Z"/><path d="M6.3855,32.84851,12.5769,39.04A1.2,1.2,0,0,0,14.274,37.343L8.93109,32l5.3429-5.3429a1.2,1.2,0,0,0-1.697-1.697L12.5769,24.96,6.3855,31.15143A1.2,1.2,0,0,0,6.3855,32.84851Z"/><path d="M51.423,24.96a1.2,1.2,0,1,0-1.697,1.69708L55.06885,32l-5.343,5.343A1.2,1.2,0,0,0,51.423,39.04l6.19153-6.19153a1.20011,1.20011,0,0,0,0-1.69708Z"/><path d="M37.3429,49.72589,32,55.06885l-5.343-5.343A1.2,1.2,0,0,0,24.96,51.423l6.19153,6.19153a1.2,1.2,0,0,0,1.697-.00006l6.19141-6.19153a1.2,1.2,0,1,0-1.697-1.697Z"/><path d="M26.657,14.27411,32,8.93109l5.3429,5.343A1.2,1.2,0,1,0,39.04,12.577h-.00006L32.84851,6.3855a1.2,1.2,0,0,0-1.697,0L24.96,12.577A1.2,1.2,0,0,0,26.657,14.27411Z"/></g></svg>