<svg xmlns="http://www.w3.org/2000/svg" viewBox="0 0 64 64"><g id="レイヤー_2" data-name="レイヤー 2"><path d="M14.97339,46.27881a1.2,1.2,0,1,0,0,2.4h1.89575v4.9914a1.2,1.2,0,0,0,1.2,1.2H49.02661a1.2,1.2,0,0,0,1.2-1.2V10.32977a1.2001,1.2001,0,0,0-1.2-1.2H18.06915a1.2001,1.2001,0,0,0-1.2,1.2v4.99152H14.97339a1.2,1.2,0,0,0,0,2.4h1.89575v3.79151H14.97339a1.2,1.2,0,0,0,0,2.4h1.89575v3.79138H14.97339a1.2,1.2,0,0,0,0,2.4h1.89575v3.7915H14.97339a1.2,1.2,0,1,0,0,2.4h1.89575v3.79156H14.97339a1.2,1.2,0,1,0,0,2.4h1.89575v3.79157Zm4.29578-3.79157h1.89575a1.2,1.2,0,1,0,0-2.4H19.26917V36.29572h1.89575a1.2,1.2,0,1,0,0-2.4H19.26917v-3.7915h1.89575a1.2,1.2,0,0,0,0-2.4H19.26917V23.91284h1.89575a1.2,1.2,0,1,0,0-2.4H19.26917V17.72131h1.89575a1.2,1.2,0,1,0,0-2.4H19.26917v-3.7915H47.8266V52.47021H19.26917V48.67877h1.89575a1.2,1.2,0,1,0,0-2.4H19.26917Z"/></g></svg>