<svg xmlns="http://www.w3.org/2000/svg" viewBox="0 0 64 64"><g id="レイヤー_2" data-name="レイヤー 2"><path d="M9.58252,55.9353l13.13409-4.37793c.01838-.0061.03339-.01776.05133-.02472.02521-.00976.04694-.02307.07135-.03442a1.18738,1.18738,0,0,0,.30921-.206c.01105-.0102.02649-.0141.03717-.02478l21.89-21.89.00031-.00024.00024-.00031,4.37757-4.37762.00018-.00012,4.37805-4.378A7.39149,7.39149,0,1,0,43.37891,10.168L39.00085,14.546,12.7326,40.81427c-.01086.01086-.01409.02557-.02441.03674a1.18707,1.18707,0,0,0-.20819.31354c-.012.02606-.02667.04956-.03674.07623-.00562.0149-.01545.02735-.02051.04255L8.06464,54.41742A1.2,1.2,0,0,0,9.58252,55.9353Zm1.51788-3.0357,3.00513-9.01532,6.01019,6.01025Zm33.127-26.06806-7.059-7.059,2.681-2.681,7.059,7.059ZM45.076,11.865a4.9915,4.9915,0,0,1,7.059,7.05914l-3.52954,3.52942-7.059-7.059Zm-9.60468,9.60468,7.059,7.059L22.33716,48.72192l-7.059-7.05914Z"/></g></svg>