<svg xmlns="http://www.w3.org/2000/svg" viewBox="0 0 64 64"><g id="レイヤー_2" data-name="レイヤー 2"><path d="M12.22559,45.86035v7.80982a1.19989,1.19989,0,0,0,1.2,1.2H50.57446a1.19989,1.19989,0,0,0,1.2-1.2V45.86035A18.14771,18.14771,0,0,0,37.95209,28.24677a10.4873,10.4873,0,1,0-11.90418,0A18.14772,18.14772,0,0,0,12.22559,45.86035ZM23.91272,19.61707a8.08718,8.08718,0,1,1,2.36871,5.7185A8.05681,8.05681,0,0,1,23.91272,19.61707Zm6.46887,10.48718h3.23688a15.756,15.756,0,0,1,15.756,15.7561v6.60986H14.62555V45.86035a15.756,15.756,0,0,1,15.756-15.7561Z"/></g></svg>