<svg xmlns="http://www.w3.org/2000/svg" viewBox="0 0 64 64"><g id="レイヤー_2" data-name="レイヤー 2"><path d="M24.87732,45.57782c3.24707,5.39795,6.12622,9.56592,6.13525,9.57922a1.2,1.2,0,0,0,1.97473,0c.0105-.01556,3.76911-5.45605,7.54236-11.96a104.94449,104.94449,0,0,0,5.21125-10.03259,40.08542,40.08542,0,0,0,1.74939-4.65216,14.55582,14.55582,0,0,0,.69311-4.00385,16.18341,16.18341,0,1,0-32.36682,0,14.55545,14.55545,0,0,0,.69311,4.00385C18.01569,33.57733,21.62952,40.1684,24.87732,45.57782ZM22.25366,14.762a13.78342,13.78342,0,0,1,23.52973,9.74646,12.30305,12.30305,0,0,1-.59455,3.32306C43.8269,32.462,40.271,39.02252,37.066,44.34076c-1.60278,2.66461-3.11853,5.03137-4.2323,6.72986-.31354.47821-.59088.8966-.83374,1.26068-1.475-2.21137-4.38019-6.67426-7.14966-11.55084a93.321,93.321,0,0,1-4.64612-9.16462,34.67671,34.67671,0,0,1-1.464-4.02923,11.79239,11.79239,0,0,1-.52356-3.07819A13.735,13.735,0,0,1,22.25366,14.762Z"/><path d="M31.99994,33.2a8.69168,8.69168,0,1,0-8.69177-8.69159A8.69208,8.69208,0,0,0,31.99994,33.2ZM27.551,20.05945a6.29154,6.29154,0,1,1-1.84284,4.449A6.26666,6.26666,0,0,1,27.551,20.05945Z"/></g></svg>