<svg xmlns="http://www.w3.org/2000/svg" viewBox="0 0 64 64"><g id="レイヤー_2" data-name="レイヤー 2"><path d="M31.38721,40.671a1.20005,1.20005,0,0,0-1.2,1.2v3.22577a1.2,1.2,0,0,0,2.4,0V41.871A1.2,1.2,0,0,0,31.38721,40.671Z"/><path d="M33.00012,16.89673c-2.54547.00653-4.38928.402-5.72845,1.3258a4.35618,4.35618,0,0,0-1.48505,1.75287,5.09745,5.09745,0,0,0-.43811,2.15357,1.2,1.2,0,0,0,2.4,0,2.71419,2.71419,0,0,1,.21716-1.14783,2.28674,2.28674,0,0,1,1.326-1.13782,9.94815,9.94815,0,0,1,3.70843-.54657,5.70171,5.70171,0,0,1,3.93067,1.30085,4.11749,4.11749,0,0,1,1.32086,3.14428,2.87468,2.87468,0,0,1-.55451,1.57727,8.82836,8.82836,0,0,1-2.24133,2.14917c-.39008.27314-.74414.4895-.996.63471-.12592.07263-.22626.12756-.29291.16321l-.07361.03875-.016.00818-.001.00049a6.58525,6.58525,0,0,0-2.0133,1.735,9.04581,9.04581,0,0,0-1.87586,5.78991V36.645a1.2,1.2,0,0,0,2.4,0v-.80646a6.63116,6.63116,0,0,1,1.34991-4.29065,4.99283,4.99283,0,0,1,.89185-.87329c.11706-.08783.21057-.14813.26819-.1831l.05792-.03376.0058-.00317-.00006-.00006A15.18853,15.18853,0,0,0,37.80054,28.696a9.83379,9.83379,0,0,0,1.89355-2.04553,5.25167,5.25167,0,0,0,.95758-2.90857,6.53075,6.53075,0,0,0-2.1065-4.92016A8.08539,8.08539,0,0,0,33.00012,16.89673Z"/><path d="M32,5.8A26.2,26.2,0,1,0,58.2,32,26.20041,26.20041,0,0,0,32,5.8ZM48.82916,48.8291A23.8,23.8,0,1,1,55.8,32,23.72033,23.72033,0,0,1,48.82916,48.8291Z"/></g></svg>