<svg xmlns="http://www.w3.org/2000/svg" viewBox="0 0 64 64"><g id="レイヤー_2" data-name="レイヤー 2"><path d="M51.54193,45.35608A23.49886,23.49886,0,0,0,32.74323,7.76a1.2,1.2,0,1,0,0,2.4,21.09591,21.09591,0,0,1,16.9176,33.69989l-2.33954,2.33991V40.9187a1.2,1.2,0,1,0-2.4,0h-.00007v8.17548a1452.84354,1452.84354,0,0,1,.09144.45617,1.20052,1.20052,0,0,0,.26007.3924l.001.00067.00055.00085a1.14736,1.14736,0,0,0,.2088.13862,1.21451,1.21451,0,0,0,.18006.11956,1.19791,1.19791,0,0,0,.46716.09174h8.16644a1.2,1.2,0,0,0,0-2.4L49.021,47.89417l2.41046-2.41089Z"/><path d="M12.45807,18.64386A23.49882,23.49882,0,0,0,31.25677,56.24a1.2,1.2,0,1,0,0-2.4V53.84a21.0958,21.0958,0,0,1-16.9176-33.69983l2.33948-2.33991.00006,5.28107a1.2,1.2,0,0,0,2.4,0h-.00007V14.90576a1.16947,1.16947,0,0,0-.04144-.20691,1.17713,1.17713,0,0,0-.04993-.2492,1.19979,1.19979,0,0,0-.26007-.3924l-.00091-.00061-.00061-.00091a1.14644,1.14644,0,0,0-.21674-.14393,1.2139,1.2139,0,0,0-.17212-.11425,1.19935,1.19935,0,0,0-.46722-.0918H9.70325a1.2,1.2,0,1,0,0,2.4h5.27581l-2.41052,2.41089Z"/></g></svg>