<svg xmlns="http://www.w3.org/2000/svg" viewBox="0 0 64 64"><g id="レイヤー_2" data-name="レイヤー 2"><path d="M24.77661,40.4234a15.57385,15.57385,0,0,0,10.17474-3.775L38.971,40.66809l-.59613.59613a1.2,1.2,0,0,0,0,1.69708L49.93231,54.51874a1.20011,1.20011,0,0,0,1.69708,0l.59613-.59613.59614.59613a1.2,1.2,0,0,0,1.69708-1.69708l-.59613-.59614.59613-.59619a1.2,1.2,0,0,0,0-1.697L42.9613,38.37488a1.19992,1.19992,0,0,0-1.69708,0l-.59613.59613-4.01965-4.01966A15.63652,15.63652,0,1,0,24.77661,40.4234ZM51.97314,50.78082l-1.19232,1.19232-9.86035-9.86041,1.19226-1.19226ZM15.40967,15.40967A13.24668,13.24668,0,0,1,34.14746,34.13916l-.005.0033-.0033.005A13.24668,13.24668,0,0,1,15.40967,15.40967Z"/></g></svg>