<svg xmlns="http://www.w3.org/2000/svg" viewBox="0 0 64 64"><g id="レイヤー_2" data-name="レイヤー 2"><path d="M32,40.69171A8.69174,8.69174,0,1,0,23.30841,32,8.69208,8.69208,0,0,0,32,40.69171ZM27.55121,27.55109A6.29178,6.29178,0,1,1,25.70844,32,6.26628,6.26628,0,0,1,27.55121,27.55109Z"/><path d="M8.30475,37.10962a1.2,1.2,0,0,0-.65119,1.73559l6.24518,10.81684a1.2,1.2,0,0,0,1.82862.30377c1.69793-1.483,3.3529-3.00531,4.903-4.5484l5.44434,3.14325c-.56159,2.115-1.06159,4.30157-1.4972,6.51483a1.2,1.2,0,0,0,1.17743,1.4317H38.24518a1.2,1.2,0,0,0,1.17743-1.43176c-.43567-2.2132-.93555-4.39972-1.49719-6.51477l5.44427-3.14325c1.55023,1.543,3.20508,3.06543,4.90314,4.5484a1.19991,1.19991,0,0,0,1.82855-.30383l6.24506-10.81684a1.19993,1.19993,0,0,0-.65119-1.73547c-2.13458-.72943-4.27814-1.38971-6.39056-1.96088V28.85114c2.11242-.57117,4.256-1.23145,6.39056-1.96082a1.2,1.2,0,0,0,.65119-1.73553L50.10138,14.338a1.2,1.2,0,0,0-1.82855-.30383c-1.69812,1.483-3.353,3.00549-4.90314,4.54846l-5.44427-3.14325c.56164-2.115,1.06152-4.30163,1.49719-6.51483a1.2,1.2,0,0,0-1.17743-1.43176H25.75494a1.20006,1.20006,0,0,0-1.17743,1.4317c.43561,2.21332.93561,4.39978,1.4972,6.51483l-5.4444,3.14331c-1.55005-1.543-3.205-3.06543-4.903-4.54846a1.20009,1.20009,0,0,0-1.82862.30383L7.65356,25.15479a1.2,1.2,0,0,0,.65119,1.73553c2.1347.72937,4.27826,1.38965,6.39068,1.96082V35.1488C12.583,35.72,10.43945,36.38025,8.30475,37.10962Zm6.93762-20.29883c1.5177,1.35553,2.98474,2.7309,4.33508,4.10993a1.2011,1.2011,0,0,0,1.45734.19964L28.06061,17.064a1.20111,1.20111,0,0,0,.55578-1.36194c-.51831-1.8562-.96508-3.82025-1.37963-5.80933h9.52667c-.41468,1.98908-.86139,3.95313-1.3797,5.80933a1.20107,1.20107,0,0,0,.55578,1.36194l7.0257,4.05627a1.20093,1.20093,0,0,0,1.45728-.19958c1.35058-1.379,2.81762-2.7544,4.33532-4.10993L53.53314,25.082c-1.9328.6366-3.85736,1.21942-5.72687,1.6994a1.201,1.201,0,0,0-.90155,1.16229v8.11261a1.201,1.201,0,0,0,.90155,1.1623c1.86951.48,3.79407,1.06292,5.72687,1.69946l-4.77533,8.27118c-1.5177-1.35553-2.9848-2.73084-4.33526-4.10993a1.20094,1.20094,0,0,0-1.45734-.19964L35.93951,46.936a1.201,1.201,0,0,0-.55578,1.36194c.51831,1.85614.965,3.82019,1.3797,5.80927H27.23676c.41455-1.98908.86132-3.95307,1.37963-5.80927a1.201,1.201,0,0,0-.55578-1.36194l-7.02582-4.05633a1.20111,1.20111,0,0,0-1.4574.19964c-1.35028,1.37916-2.81738,2.75446-4.335,4.10993l-4.77545-8.27112c1.93286-.6366,3.85742-1.21948,5.727-1.69952a1.201,1.201,0,0,0,.90155-1.1623V27.94366a1.2011,1.2011,0,0,0-.90155-1.16229c-1.86951-.48-3.79413-1.06286-5.727-1.69946Z"/></g></svg>