<svg xmlns="http://www.w3.org/2000/svg" viewBox="0 0 64 64"><g id="レイヤー_2" data-name="レイヤー 2"><path d="M44.383,20.817a7.40179,7.40179,0,1,0-6.55188-3.9776L24.72693,26.66754a7.39155,7.39155,0,1,0,0,10.6648l13.10419,9.8283a7.41424,7.41424,0,1,0,1.44195-1.91857L26.169,35.41382a7.35993,7.35993,0,0,0-.00013-6.82776l13.10431-9.82819A7.3621,7.3621,0,0,0,44.383,20.817ZM40.85345,9.896a4.99141,4.99141,0,1,1-1.462,3.52954A4.97075,4.97075,0,0,1,40.85345,9.896ZM19.61707,36.99152a4.9916,4.9916,0,1,1,3.52948-1.462A4.97059,4.97059,0,0,1,19.61707,36.99152ZM44.383,45.58289a4.99158,4.99158,0,1,1-3.52955,1.462A4.97083,4.97083,0,0,1,44.383,45.58289Z"/></g></svg>