<svg xmlns="http://www.w3.org/2000/svg" viewBox="0 0 64 64"><g id="レイヤー_2" data-name="レイヤー 2"><path d="M56.97516,26.2782a1.19941,1.19941,0,0,0-1.06622-.82685L39.25507,24.40729,33.11578,8.89111a1.2,1.2,0,0,0-2.23169.00006L24.74493,24.40729,8.09106,25.45135a1.2,1.2,0,0,0-.68963,2.12244L20.261,38.20734,16.1076,54.36865A1.19994,1.19994,0,0,0,17.913,55.68036l14.08692-8.94415,14.087,8.94421a1.2,1.2,0,0,0,1.80542-1.31177L43.739,38.20734,56.59857,27.57379A1.19939,1.19939,0,0,0,56.97516,26.2782ZM41.62244,36.84332a1.19632,1.19632,0,0,0-.39753,1.22345L44.813,52.02863,32.64313,44.3017a1.19641,1.19641,0,0,0-1.28638,0L19.187,52.02863l3.58814-13.96186a1.19632,1.19632,0,0,0-.39753-1.22345L11.26813,27.65686l14.38739-.902a1.19622,1.19622,0,0,0,1.04071-.75616l5.30371-13.40448,5.30383,13.40454a1.19619,1.19619,0,0,0,1.04071.7561l14.38739.902Z"/></g></svg>