<svg xmlns="http://www.w3.org/2000/svg" viewBox="0 0 64 64"><g id="レイヤー_2" data-name="レイヤー 2"><path d="M57.96594,47.47882v-24.766a1.2,1.2,0,0,0-1.2-1.2H25.80847a1.2001,1.2001,0,0,0-1.2,1.2V33.89575H13.4259a1.21719,1.21719,0,0,0-.84887.35144l-4.143,4.143V35.09607l.00006-.00031H8.434v-23.566h28.5575V16.5213a1.2,1.2,0,1,0,2.4,0V10.32977a1.2001,1.2001,0,0,0-1.2-1.2H7.23407a1.2,1.2,0,0,0-1.2,1.2V41.28729a1.2,1.2,0,0,0,2.04852.84851l5.84009-5.84008H24.60846v11.1831a1.2,1.2,0,0,0,1.2,1.2H50.07739l5.84,5.84a1.2,1.2,0,0,0,2.04852-.84857v-6.191l.00006-.00031Zm-2.4,3.29431-4.143-4.14288a1.21455,1.21455,0,0,0-.84692-.35114l-.00159-.0003h-23.566v-22.366H55.56592l.00006,23.566Z"/></g></svg>