<svg xmlns="http://www.w3.org/2000/svg" viewBox="0 0 64 64"><g id="レイヤー_2" data-name="レイヤー 2"><path d="M41.83655,57.29547a15.89482,15.89482,0,0,0,11.50561-4.60132l3.60193-3.60193a1.2,1.2,0,0,0-.00006-1.69708l-7.45856-7.45843a6.44141,6.44141,0,0,0-9.10992,0,8.41113,8.41113,0,0,1-1.89233,1.345,4.80863,4.80863,0,0,1-1.97962.64172l-.09167-.00317a8.93447,8.93447,0,0,1-5.66565-2.593l-3.03675-3.03674-3.03668-3.03669a8.93574,8.93574,0,0,1-2.5932-5.66595l-.00317-.09125a4.809,4.809,0,0,1,.64172-1.9798,8.40678,8.40678,0,0,1,1.34515-1.89239,6.44185,6.44185,0,0,0,0-9.10992L16.60474,7.056a1.2,1.2,0,0,0-1.697,0l-3.6018,3.60181A15.89437,15.89437,0,0,0,6.70447,22.16351c.01007,7.04608,3.82507,15.22217,11.86444,23.26764C26.61438,53.4704,34.79047,57.2854,41.83655,57.29547ZM13.00293,12.35486l2.7533-2.7533,6.61,6.60993a4.04178,4.04178,0,0,1,0,5.71588,10.7036,10.7036,0,0,0-1.77,2.46808,6.97758,6.97758,0,0,0-.9198,3.10113l.00965.26685a11.33577,11.33577,0,0,0,3.28967,7.18738l3.03674,3.03674,3.03668,3.03674A11.3348,11.3348,0,0,0,36.237,44.31384l.2666.00959a6.97718,6.97718,0,0,0,3.101-.9198,10.70545,10.70545,0,0,0,2.468-1.76984,4.04149,4.04149,0,0,1,5.71582-.00006l6.61011,6.61-2.75342,2.75336a13.478,13.478,0,0,1-9.80853,3.89838c-6.1521.01007-13.8288-3.41339-21.57062-11.16138C12.51788,35.99225,9.09442,28.31555,9.10449,22.16351A13.47777,13.47777,0,0,1,13.00293,12.35486Z"/></g></svg>