<svg xmlns="http://www.w3.org/2000/svg" viewBox="0 0 64 64"><g id="レイヤー_2" data-name="レイヤー 2"><path d="M28.05573,54.5188a1.20786,1.20786,0,0,0,.84851.35144h6.19152a1.2,1.2,0,0,0,1.2-1.2v-5.1189A4.10094,4.10094,0,0,0,38.17865,47.545a3.87074,3.87074,0,0,0,1.21289-2.805V42.48718h.48779a1.20246,1.20246,0,0,0,1.0849-.68707l6.02326-12.74066.05865-.14911.91834-2.88672a11.17279,11.17279,0,0,0,.53308-3.396,12.38671,12.38671,0,0,0-4.47113-9.25018,17.92454,17.92454,0,0,0-11.046-4.22534h.00036Q32.49363,9.12976,32,9.1297q-.49347,0-.98071.0224h.00036a17.92457,17.92457,0,0,0-11.04608,4.22534,12.38671,12.38671,0,0,0-4.47113,9.25018,11.1753,11.1753,0,0,0,.53308,3.39606l.91834,2.88666.05865.14911,6.02332,12.74066a1.20237,1.20237,0,0,0,1.08484.68707h.48785V44.74a3.87069,3.87069,0,0,0,1.21283,2.805,4.1015,4.1015,0,0,0,1.88287,1.00635v5.1189A1.208,1.208,0,0,0,28.05573,54.5188Zm2.04852-5.84009h3.7915v3.79157h-3.7915ZM19.21661,28.10626l-.894-2.81018a8.773,8.773,0,0,1-.42017-2.66846,9.99108,9.99108,0,0,1,3.65357-7.4458,15.53368,15.53368,0,0,1,9.57281-3.6322l.00037-.00006q.43194-.01977.87085-.01984.4389,0,.87091.01984l.00031.00006a15.53354,15.53354,0,0,1,9.57281,3.6322,9.99108,9.99108,0,0,1,3.65357,7.4458,8.77232,8.77232,0,0,1-.42017,2.6684l-.894,2.81018-5.66413,11.981h-5.4544l5.665-16.995a1.2,1.2,0,0,0-2.27686-.75891L32,37.49249,27.47339,23.91278H32a1.2,1.2,0,0,0,0-2.4H25.80847A1.20005,1.20005,0,0,0,24.67,23.09222l5.665,16.995H24.88074ZM27.00848,44.74V42.48718h9.983V44.74a1.466,1.466,0,0,1-.46924,1.06818,1.73369,1.73369,0,0,1-1.20233.47058H28.68011a1.73358,1.73358,0,0,1-1.20233-.47058A1.46632,1.46632,0,0,1,27.00848,44.74Z"/></g></svg>