<svg xmlns="http://www.w3.org/2000/svg" viewBox="0 0 64 64"><g id="レイヤー_2" data-name="レイヤー 2"><path d="M56.766,27.70422a1.2,1.2,0,0,0-1.2,1.2v23.566H8.434v-23.566a1.2,1.2,0,1,0-2.4,0V53.67017a1.19989,1.19989,0,0,0,1.2,1.2H56.766a1.19989,1.19989,0,0,0,1.2-1.2V28.90424A1.2,1.2,0,0,0,56.766,27.70422Z"/><path d="M32,42.48718a1.2,1.2,0,0,0,1.2-1.2V13.22681L43.53455,23.56122a1.2,1.2,0,1,0,1.697-1.697L32.84851,9.48126a1.18327,1.18327,0,0,0-.35608-.23645,1.13423,1.13423,0,0,0-.11908-.04236,1.18494,1.18494,0,0,0-.29529-.05749,1.1651,1.1651,0,0,0-.12378-.00629,1.18426,1.18426,0,0,0-.377.07337c-.01068.004-.022.00378-.03259.00811l-.00391.001a1.1846,1.1846,0,0,0-.35168.23517c-.01142.01056-.02649.01385-.0376.025L18.76855,21.8642a1.2,1.2,0,1,0,1.69709,1.697L30.8,13.22681V41.28717A1.2,1.2,0,0,0,32,42.48718Z"/></g></svg>