<svg xmlns="http://www.w3.org/2000/svg" viewBox="0 0 64 64"><g id="レイヤー_2" data-name="レイヤー 2"><path d="M38.37488,42.9613,49.93231,54.51874a1.20011,1.20011,0,0,0,1.69708,0l.59613-.59613.59614.59613a1.2,1.2,0,0,0,1.69708-1.69708l-.59613-.59614.59613-.59619a1.2,1.2,0,0,0,0-1.697L42.9613,38.37488a1.19992,1.19992,0,0,0-1.69708,0l-.59613.59613-4.01965-4.01966a15.67466,15.67466,0,1,0-1.69709,1.69709L38.971,40.66809l-.59613.59613A1.2,1.2,0,0,0,38.37488,42.9613ZM15.40967,34.14349a13.247,13.247,0,1,1,18.73779-.00433l-.005.0033-.0033.005a13.24641,13.24641,0,0,1-18.72949-.004ZM51.97314,50.78082l-1.19232,1.19232-9.86035-9.86035,1.19232-1.19232Z"/><path d="M29.59222,23.5766H19.961a1.2,1.2,0,1,0,0,2.4h9.63122a1.2,1.2,0,1,0,0-2.4Z"/></g></svg>