<?xml version="1.0" encoding="utf-8"?>
<!-- Generator: Adobe Illustrator 25.4.1, SVG Export Plug-In . SVG Version: 6.00 Build 0)  -->
<svg version="1.1" id="レイヤー_1" xmlns="http://www.w3.org/2000/svg" xmlns:xlink="http://www.w3.org/1999/xlink" x="0px"
	 y="0px" viewBox="0 0 56 56" style="enable-background:new 0 0 56 56;" xml:space="preserve">
<style type="text/css">
	.st0{fill:#888888;}
</style>
<g id="レイヤー_4">
	<path class="st0" d="M23.5,34.1c2.7,0,5.2-1,7.1-2.9l2.8,2.8l-0.3,0.3l7.8,7.9l0.3-0.4l0,0l0.4-0.3l0.7-0.7l-7.9-7.9l-0.3,0.3
		l-2.8-2.8c3.5-4.1,3.2-10.2-0.5-14l0,0c-4-4-10.5-4-14.6,0s-4,10.5,0,14.6C18.2,33,20.8,34.1,23.5,34.1L23.5,34.1z M17.7,17.9
		c3.2-3.2,8.5-3.2,11.7,0c0,0,0,0,0,0l0.7-0.7l-0.7,0.7c3.2,3.2,3.2,8.5,0,11.7s-8.5,3.2-11.7,0S14.4,21.2,17.7,17.9
		C17.7,17.9,17.7,17.9,17.7,17.9z"/>
</g>
</svg>
